<?xml version="1.0" encoding="UTF-8" standalone="no"?>
<svg
   xmlns:dc="http://purl.org/dc/elements/1.1/"
   xmlns:cc="http://creativecommons.org/ns#"
   xmlns:rdf="http://www.w3.org/1999/02/22-rdf-syntax-ns#"
   xmlns:svg="http://www.w3.org/2000/svg"
   xmlns="http://www.w3.org/2000/svg"
   viewBox="0 0 256.76001 232.52"
   height="232.52"
   width="256.76001"
   xml:space="preserve"
   id="svg2"
   version="1.1"><metadata
     id="metadata8"><rdf:RDF><cc:Work
         rdf:about=""><dc:format>image/svg+xml</dc:format><dc:type
           rdf:resource="http://purl.org/dc/dcmitype/StillImage" /></cc:Work></rdf:RDF></metadata><defs
     id="defs6" /><g
     transform="matrix(1.3333333,0,0,-1.3333333,0,232.52)"
     id="g10"><g
       transform="scale(0.1)"
       id="g12"><path
         id="path14"
         style="fill:#444142;fill-opacity:1;fill-rule:nonzero;stroke:none"
         d="M 14.5977,338.051 C 14,308.609 35.2422,299.57 61.293,299.57 c 15.0351,0 37.8867,8.231 37.8867,29.078 0,16.243 -16.2344,22.641 -29.4688,25.852 l -31.8632,7.82 c -16.836,4.2 -32.27739,12.231 -32.27739,34.469 0,14.031 9.02739,40.281 49.31249,40.281 28.2656,0 53.1212,-15.218 52.9142,-44.492 H 94.168 c -0.8047,21.844 -18.836,32.871 -39.086,32.871 -18.6406,0 -35.8789,-7.211 -35.8789,-28.461 0,-13.429 10.0196,-19.039 21.6524,-21.847 l 34.8711,-8.621 c 20.25,-5.399 37.0864,-14.219 37.0864,-37.68 0,-9.82 -4.008,-40.879 -54.7192,-40.879 -33.879,0 -58.734425,15.23 -57.12505,50.09 H 14.5977" /><path
         id="path16"
         style="fill:#444142;fill-opacity:1;fill-rule:nonzero;stroke:none"
         d="m 138.125,342.68 c 0,-22.059 12.02,-44.102 36.273,-44.102 24.258,0 36.282,22.043 36.282,44.102 0,22.039 -12.024,44.09 -36.282,44.09 -24.253,0 -36.273,-22.051 -36.273,-44.09 z m 85.18,0 c 0,-29.668 -17.242,-54.719 -48.907,-54.719 -31.668,0 -48.91,25.051 -48.91,54.719 0,29.66 17.242,54.718 48.91,54.718 31.665,0 48.907,-25.058 48.907,-54.718" /><path
         id="path18"
         style="fill:#444142;fill-opacity:1;fill-rule:nonzero;stroke:none"
         d="m 240.996,434.082 h 12.621 V 290.961 h -12.621 v 143.121" /><path
         id="path20"
         style="fill:#444142;fill-opacity:1;fill-rule:nonzero;stroke:none"
         d="m 342.633,347.48 h -0.403 c -1.601,-3 -7.214,-4.011 -10.621,-4.601 -21.449,-3.82 -48.109,-3.609 -48.109,-23.859 0,-12.622 11.23,-20.442 23.055,-20.442 19.242,0 36.277,12.231 36.078,32.473 z m -67.344,15.239 c 1.199,24.25 18.234,34.679 41.891,34.679 18.234,0 38.086,-5.617 38.086,-33.277 v -54.922 c 0,-4.808 2.402,-7.609 7.41,-7.609 1.402,0 3.008,0.398 4.012,0.789 V 291.75 c -2.809,-0.59 -4.817,-0.789 -8.219,-0.789 -12.828,0 -14.832,7.219 -14.832,18.027 h -0.41 c -8.809,-13.429 -17.836,-21.027 -37.68,-21.027 -19.039,0 -34.672,9.43 -34.672,30.258 0,29.062 28.262,30.07 55.52,33.281 10.421,1.199 16.238,2.602 16.238,14.031 0,17.02 -12.235,21.239 -27.063,21.239 -15.632,0 -27.25,-7.211 -27.656,-24.051 h -12.625" /><path
         id="path22"
         style="fill:#444142;fill-opacity:1;fill-rule:nonzero;stroke:none"
         d="m 379.156,394.379 h 11.629 v -24.25 h 0.399 c 6.41,16.641 20.449,26.461 39.082,25.66 V 383.16 c -22.856,1.199 -38.485,-15.64 -38.485,-37.082 v -55.117 h -12.625 v 103.418" /><path
         id="path24"
         style="fill:#444142;fill-opacity:1;fill-rule:nonzero;stroke:none"
         d="m 497.672,434.082 h 98.808 v -11.621 h -85.179 v -51.723 h 79.773 V 359.109 H 511.301 V 302.59 h 86.183 v -11.629 h -99.812 v 143.121" /><path
         id="path26"
         style="fill:#444142;fill-opacity:1;fill-rule:nonzero;stroke:none"
         d="m 612.563,394.379 h 12.636 v -17.84 h 0.399 c 4.613,12.441 18.441,20.859 33.074,20.859 29.062,0 37.887,-15.226 37.887,-39.898 V 290.961 H 683.922 V 355.5 c 0,17.84 -5.813,31.27 -26.254,31.27 -20.047,0 -32.07,-15.239 -32.469,-35.481 v -60.328 h -12.636 v 103.418" /><path
         id="path28"
         style="fill:#444142;fill-opacity:1;fill-rule:nonzero;stroke:none"
         d="m 793.414,349.898 c -0.601,19.032 -12.434,36.872 -32.879,36.872 -20.64,0 -32.066,-18.04 -34.07,-36.872 z M 726.465,339.27 c 0.195,-18.442 9.82,-40.692 34.07,-40.692 18.445,0 28.465,10.82 32.469,26.453 h 12.637 c -5.422,-23.441 -19.047,-37.07 -45.106,-37.07 -32.867,0 -46.703,25.25 -46.703,54.719 0,27.261 13.836,54.718 46.703,54.718 33.274,0 46.508,-29.07 45.5,-58.128 h -79.57" /><path
         id="path30"
         style="fill:#444142;fill-opacity:1;fill-rule:nonzero;stroke:none"
         d="m 821.723,394.379 h 11.629 v -24.25 h 0.394 c 6.414,16.641 20.453,26.461 39.086,25.66 V 383.16 c -22.852,1.199 -38.484,-15.64 -38.484,-37.082 v -55.117 h -12.625 v 103.418" /><path
         id="path32"
         style="fill:#444142;fill-opacity:1;fill-rule:nonzero;stroke:none"
         d="m 958.242,343.879 c 0,20.242 -9.426,42.891 -33.269,42.891 -24.051,0 -34.075,-21.45 -34.075,-42.891 0,-20.84 10.825,-41.098 34.075,-41.098 21.843,0 33.269,20.051 33.269,41.098 z m 12.621,-44.5 c -0.195,-30.859 -12.019,-49.707 -45.89,-49.707 -20.649,0 -41.086,9.207 -42.899,31.269 h 12.629 c 2.809,-15.23 16.238,-20.64 30.27,-20.64 23.246,0 33.269,13.828 33.269,39.078 v 14.019 h -0.394 c -5.817,-12.609 -18.043,-21.238 -32.875,-21.238 -33.075,0 -46.707,23.66 -46.707,53.11 0,28.46 16.839,52.128 46.707,52.128 15.031,0 27.863,-9.429 32.875,-20.859 h 0.394 v 17.84 h 12.621 v -95" /><path
         id="path34"
         style="fill:#444142;fill-opacity:1;fill-rule:nonzero;stroke:none"
         d="m 981.93,394.379 h 13.445 l 34.075,-88.188 31.86,88.188 h 12.62 l -44.88,-119.25 c -7.22,-17.449 -11.44,-22.457 -27.25,-22.457 -5.007,0.219 -7.624,0.219 -9.636,1.008 v 10.621 c 2.996,-0.602 5.828,-1 8.616,-1 11.22,0 13.83,6.609 18.04,16.25 l 4.42,11.808 -41.31,103.02" /><path
         id="path36"
         style="fill:#444142;fill-opacity:1;fill-rule:nonzero;stroke:none"
         d="m 1155.39,366.129 h 50.91 c 16.62,0 30.87,10.41 30.87,27.859 0,17.434 -10.43,28.473 -30.87,28.473 h -50.91 z m -13.63,67.953 h 65.53 c 23.67,0 43.52,-11.441 43.52,-37.293 0,-18.051 -9.43,-32.867 -27.89,-36.48 v -0.387 c 18.66,-2.422 24.08,-15.25 25.06,-32.281 0.61,-9.821 0.61,-29.461 6.62,-36.68 h -15.03 c -3.4,5.609 -3.4,16.23 -3.79,22.25 -1.2,20.051 -2.83,42.289 -28.68,41.289 h -51.71 v -63.539 h -13.63 v 143.121" /><path
         id="path38"
         style="fill:#444142;fill-opacity:1;fill-rule:nonzero;stroke:none"
         d="m 1346.06,349.898 c -0.61,19.032 -12.42,36.872 -32.86,36.872 -20.65,0 -32.08,-18.04 -34.09,-36.872 z m -66.95,-10.628 c 0.21,-18.442 9.83,-40.692 34.09,-40.692 18.43,0 28.45,10.82 32.47,26.453 h 12.64 c -5.44,-23.441 -19.07,-37.07 -45.11,-37.07 -32.89,0 -46.72,25.25 -46.72,54.719 0,27.261 13.83,54.718 46.72,54.718 33.26,0 46.49,-29.07 45.49,-58.128 h -79.58" /><path
         id="path40"
         style="fill:#444142;fill-opacity:1;fill-rule:nonzero;stroke:none"
         d="m 1436.31,364.121 c -0.6,15.629 -12.61,22.649 -27.05,22.649 -11.22,0 -24.45,-4.411 -24.45,-17.84 0,-11.219 12.82,-15.239 21.44,-17.43 l 16.84,-3.809 c 14.43,-2.211 29.45,-10.632 29.45,-28.671 0,-22.45 -22.24,-31.059 -41.48,-31.059 -24.06,0 -40.5,11.219 -42.49,36.469 h 12.64 c 0.98,-17.039 13.62,-25.852 30.46,-25.852 11.81,0 28.26,5.203 28.26,19.641 0,12.019 -11.22,16.043 -22.66,18.84 l -16.23,3.613 c -16.45,4.398 -28.87,10.019 -28.87,27.656 0,21.043 20.65,29.07 38.89,29.07 20.64,0 37.09,-10.839 37.89,-33.277 h -12.64" /><path
         id="path42"
         style="fill:#444142;fill-opacity:1;fill-rule:nonzero;stroke:none"
         d="m 1543.78,349.898 c -0.59,19.032 -12.42,36.872 -32.87,36.872 -20.64,0 -32.06,-18.04 -34.07,-36.872 z m -66.94,-10.628 c 0.2,-18.442 9.82,-40.692 34.07,-40.692 18.44,0 28.47,10.82 32.47,26.453 h 12.64 c -5.42,-23.441 -19.04,-37.07 -45.11,-37.07 -32.87,0 -46.71,25.25 -46.71,54.719 0,27.261 13.84,54.718 46.71,54.718 33.26,0 46.5,-29.07 45.51,-58.128 h -79.58" /><path
         id="path44"
         style="fill:#444142;fill-opacity:1;fill-rule:nonzero;stroke:none"
         d="m 1638.23,347.48 h -0.39 c -1.6,-3 -7.22,-4.011 -10.63,-4.601 -21.45,-3.82 -48.09,-3.609 -48.09,-23.859 0,-12.622 11.22,-20.442 23.03,-20.442 19.24,0 36.28,12.231 36.08,32.473 z m -67.34,15.239 c 1.2,24.25 18.25,34.679 41.89,34.679 18.24,0 38.07,-5.617 38.07,-33.277 v -54.922 c 0,-4.808 2.41,-7.609 7.42,-7.609 1.41,0 3.01,0.398 4.02,0.789 V 291.75 c -2.8,-0.59 -4.81,-0.789 -8.22,-0.789 -12.82,0 -14.83,7.219 -14.83,18.027 h -0.42 c -8.8,-13.429 -17.82,-21.027 -37.66,-21.027 -19.05,0 -34.68,9.43 -34.68,30.258 0,29.062 28.27,30.07 55.51,33.281 10.43,1.199 16.24,2.602 16.24,14.031 0,17.02 -12.22,21.239 -27.05,21.239 -15.64,0 -27.27,-7.211 -27.66,-24.051 h -12.63" /><path
         id="path46"
         style="fill:#444142;fill-opacity:1;fill-rule:nonzero;stroke:none"
         d="m 1674.75,394.379 h 11.64 v -24.25 h 0.39 c 6.43,16.641 20.45,26.461 39.08,25.66 V 383.16 c -22.85,1.199 -38.47,-15.64 -38.47,-37.082 v -55.117 h -12.64 v 103.418" /><path
         id="path48"
         style="fill:#444142;fill-opacity:1;fill-rule:nonzero;stroke:none"
         d="m 1805.92,361.91 c -3.42,15.442 -12.84,24.86 -29.26,24.86 -24.27,0 -36.28,-22.051 -36.28,-44.09 0,-22.059 12.01,-44.102 36.28,-44.102 15.62,0 28.45,12.231 30.05,29.453 h 12.62 c -3.39,-24.84 -19.64,-40.07 -42.67,-40.07 -31.68,0 -48.92,25.051 -48.92,54.719 0,29.66 17.24,54.718 48.92,54.718 22.03,0 39.08,-11.828 41.88,-35.488 h -12.62" /><path
         id="path50"
         style="fill:#444142;fill-opacity:1;fill-rule:nonzero;stroke:none"
         d="m 1835.42,434.082 h 12.64 v -57.543 h 0.39 c 4.62,12.441 18.44,20.859 33.07,20.859 29.07,0 37.9,-15.226 37.9,-39.898 v -66.539 h -12.64 V 355.5 c 0,17.84 -5.82,31.27 -26.25,31.27 -20.05,0 -32.08,-15.239 -32.47,-35.481 v -60.328 h -12.64 v 143.121" /><path
         id="path52"
         style="fill:#444142;fill-opacity:1;fill-rule:nonzero;stroke:none"
         d="M 9.17969,184.422 H 22.8125 V 41.3008 H 9.17969 V 184.422" /><path
         id="path54"
         style="fill:#444142;fill-opacity:1;fill-rule:nonzero;stroke:none"
         d="m 55.2969,144.719 h 12.6328 v -17.84 h 0.3945 c 4.6211,12.441 18.4453,20.859 33.0778,20.859 29.063,0 37.883,-15.238 37.883,-39.898 V 41.3008 H 126.656 V 105.84 c 0,17.851 -5.816,31.269 -26.261,31.269 -20.0434,0 -32.0708,-15.238 -32.4653,-35.48 V 41.3008 H 55.2969 V 144.719" /><path
         id="path56"
         style="fill:#444142;fill-opacity:1;fill-rule:nonzero;stroke:none"
         d="m 230.336,114.461 c -0.602,15.629 -12.625,22.648 -27.059,22.648 -11.222,0 -24.449,-4.41 -24.449,-17.839 0,-11.219 12.832,-15.239 21.442,-17.43 l 16.839,-3.8087 c 14.434,-2.211 29.461,-10.6211 29.461,-28.6797 0,-22.4414 -22.246,-31.0508 -41.48,-31.0508 -24.067,0 -40.5,11.2305 -42.5,36.4687 h 12.629 c 1.004,-17.039 13.625,-25.8476 30.469,-25.8476 11.824,0 28.257,5.207 28.257,19.6367 0,12.0195 -11.218,16.043 -22.644,18.8516 L 195.063,91 c -16.434,4.4102 -28.868,10.031 -28.868,27.68 0,21.019 20.645,29.058 38.895,29.058 20.64,0 37.078,-10.84 37.879,-33.277 h -12.633" /><path
         id="path58"
         style="fill:#444142;fill-opacity:1;fill-rule:nonzero;stroke:none"
         d="m 290.105,144.719 h 21.047 V 134.102 H 290.105 V 64.3398 c 0,-8.1992 1.204,-13.0195 10.231,-13.621 3.609,0 7.219,0.1914 10.816,0.6015 V 40.5 c -3.804,0 -7.414,-0.3984 -11.226,-0.3984 -16.828,0 -22.645,5.6093 -22.442,23.25 v 70.7504 h -18.043 v 10.617 h 18.043 v 31.07 h 12.621 v -31.07" /><path
         id="path60"
         style="fill:#444142;fill-opacity:1;fill-rule:nonzero;stroke:none"
         d="m 334.84,144.719 h 12.625 V 41.3008 H 334.84 Z m 0,39.703 h 12.625 V 164.16 H 334.84 v 20.262" /><path
         id="path62"
         style="fill:#444142;fill-opacity:1;fill-rule:nonzero;stroke:none"
         d="m 396.988,144.719 h 21.039 V 134.102 H 396.988 V 64.3398 c 0,-8.1992 1.2,-13.0195 10.223,-13.621 3.609,0 7.219,0.1914 10.816,0.6015 V 40.5 c -3.804,0 -7.414,-0.3984 -11.218,-0.3984 -16.836,0 -22.649,5.6093 -22.45,23.25 v 70.7504 h -18.043 v 10.617 h 18.043 v 31.07 h 12.629 v -31.07" /><path
         id="path64"
         style="fill:#444142;fill-opacity:1;fill-rule:nonzero;stroke:none"
         d="m 525.305,41.3008 h -11.633 v 18.6406 h -0.406 C 506.66,46.1211 493.027,38.3008 477.598,38.3008 c -26.059,0 -36.289,15.2305 -36.289,39.2695 v 67.1487 h 12.636 V 77.3906 c 0.602,-18.6601 7.614,-28.4687 27.657,-28.4687 21.652,0 31.066,20.4297 31.066,41.4765 v 54.3206 h 12.637 V 41.3008" /><path
         id="path66"
         style="fill:#444142;fill-opacity:1;fill-rule:nonzero;stroke:none"
         d="m 574.453,144.719 h 21.039 V 134.102 H 574.453 V 64.3398 c 0,-8.1992 1.195,-13.0195 10.227,-13.621 3.605,0 7.215,0.1914 10.812,0.6015 V 40.5 c -3.804,0 -7.41,-0.3984 -11.219,-0.3984 -16.835,0 -22.648,5.6093 -22.449,23.25 v 70.7504 h -18.039 v 10.617 h 18.039 v 31.07 h 12.629 v -31.07" /><path
         id="path68"
         style="fill:#444142;fill-opacity:1;fill-rule:nonzero;stroke:none"
         d="m 693.344,100.23 c -0.602,19.04 -12.43,36.879 -32.871,36.879 -20.645,0 -32.071,-18.05 -34.071,-36.879 z M 626.402,89.6094 c 0.192,-18.4297 9.821,-40.6875 34.071,-40.6875 18.437,0 28.465,10.8164 32.465,26.457 h 12.632 c -5.414,-23.457 -19.047,-37.0781 -45.097,-37.0781 -32.875,0 -46.707,25.25 -46.707,54.7109 0,27.2693 13.832,54.7263 46.707,54.7263 33.265,0 46.504,-29.058 45.5,-58.1286 h -79.571" /><path
         id="path70"
         style="fill:#444142;fill-opacity:1;fill-rule:nonzero;stroke:none"
         d="m 796.648,93.0117 c 0,-22.0508 12.024,-44.0898 36.278,-44.0898 24.258,0 36.277,22.039 36.277,44.0898 0,22.0393 -12.019,44.0973 -36.277,44.0973 -24.254,0 -36.278,-22.058 -36.278,-44.0973 z m 85.184,0 c 0,-29.6601 -17.242,-54.7109 -48.906,-54.7109 -31.672,0 -48.91,25.0508 -48.91,54.7109 0,29.6683 17.238,54.7263 48.91,54.7263 31.664,0 48.906,-25.058 48.906,-54.7263" /><path
         id="path72"
         style="fill:#444142;fill-opacity:1;fill-rule:nonzero;stroke:none"
         d="M 945.82,134.102 H 925.375 V 41.3008 h -12.621 v 92.8012 h -17.649 v 10.617 h 17.649 v 9.422 c -0.203,17.839 4.809,30.281 25.051,30.281 3.605,0 6.613,-0.223 10.617,-0.813 v -10.82 c -3.402,0.602 -6.211,1 -9.219,1 -14.027,0 -13.621,-8.809 -13.828,-20.039 v -9.031 h 20.445 v -10.617" /><path
         id="path74"
         style="fill:#444142;fill-opacity:1;fill-rule:nonzero;stroke:none"
         d="m 1032.86,88.3906 c -0.61,-29.4492 20.64,-38.4804 46.71,-38.4804 15.02,0 37.88,8.2187 37.88,29.0781 0,16.2305 -16.23,22.6407 -29.48,25.8517 l -31.86,7.82 c -16.83,4.199 -32.27,12.231 -32.27,34.469 0,14.043 9.02,40.293 49.32,40.293 28.26,0 53.1,-15.231 52.9,-44.512 h -13.62 c -0.81,21.852 -18.85,32.879 -39.09,32.879 -18.65,0 -35.87,-7.219 -35.87,-28.461 0,-13.43 10.02,-19.039 21.63,-21.848 l 34.89,-8.621 c 20.23,-5.398 37.07,-14.23 37.07,-37.6793 0,-9.8281 -3.99,-40.8789 -54.7,-40.8789 -33.88,0 -58.74,15.2305 -57.14,50.0898 h 13.63" /><path
         id="path76"
         style="fill:#444142;fill-opacity:1;fill-rule:nonzero;stroke:none"
         d="m 1155.79,144.719 h 12.61 V 41.3008 h -12.61 z m 0,39.703 h 12.61 V 164.16 h -12.61 v 20.262" /><path
         id="path78"
         style="fill:#444142;fill-opacity:1;fill-rule:nonzero;stroke:none"
         d="m 1197.7,144.719 h 12.63 v -17.84 h 0.39 c 4.62,12.441 18.45,20.859 33.08,20.859 29.07,0 37.88,-15.238 37.88,-39.898 V 41.3008 h -12.62 V 105.84 c 0,17.851 -5.83,31.269 -26.26,31.269 -20.05,0 -32.08,-15.238 -32.47,-35.48 V 41.3008 H 1197.7 V 144.719" /><path
         id="path80"
         style="fill:#444142;fill-opacity:1;fill-rule:nonzero;stroke:none"
         d="m 1385.54,94.2109 c 0,20.2501 -9.41,42.8981 -33.25,42.8981 -24.05,0 -34.08,-21.449 -34.08,-42.8981 0,-20.8515 10.84,-41.0898 34.08,-41.0898 21.84,0 33.25,20.0508 33.25,41.0898 z m 12.64,-44.5 C 1397.98,18.8516 1386.15,0 1352.29,0 c -20.64,0 -41.1,9.23047 -42.9,31.2695 h 12.64 c 2.78,-15.2187 16.23,-20.6406 30.26,-20.6406 23.23,0 33.25,13.8399 33.25,39.082 v 14.0274 h -0.38 c -5.83,-12.6094 -18.04,-21.25 -32.87,-21.25 -33.09,0 -46.71,23.6719 -46.71,53.1211 0,28.4726 16.83,52.1286 46.71,52.1286 15.03,0 27.86,-9.429 32.87,-20.859 h 0.38 v 17.84 h 12.64 V 49.7109" /><path
         id="path82"
         style="fill:#444142;fill-opacity:1;fill-rule:nonzero;stroke:none"
         d="m 1493.64,97.8203 h -0.38 c -1.61,-3 -7.22,-4.0117 -10.63,-4.6094 -21.45,-3.8125 -48.1,-3.6015 -48.1,-23.8593 0,-12.6133 11.22,-20.4297 23.04,-20.4297 19.24,0 36.28,12.2265 36.07,32.4687 z m -67.34,15.2387 c 1.2,24.25 18.26,34.679 41.9,34.679 18.24,0 38.07,-5.617 38.07,-33.277 V 59.5508 c 0,-4.8203 2.41,-7.6289 7.42,-7.6289 1.4,0 3.01,0.4062 4.02,0.7969 v -10.629 c -2.8,-0.6015 -4.81,-0.789 -8.22,-0.789 -12.83,0 -14.83,7.2187 -14.83,18.0273 h -0.42 c -8.81,-13.4297 -17.82,-21.0273 -37.67,-21.0273 -19.05,0 -34.67,9.3984 -34.67,30.2578 0,29.0625 28.26,30.0703 55.51,33.2814 10.43,1.199 16.23,2.601 16.23,14.019 0,17.039 -12.21,21.25 -27.05,21.25 -15.63,0 -27.26,-7.211 -27.65,-24.05 h -12.64" /><path
         id="path84"
         style="fill:#444142;fill-opacity:1;fill-rule:nonzero;stroke:none"
         d="m 1585.7,137.109 c -27.86,0 -36.28,-20.64 -36.28,-44.0973 0,-21.4531 9.42,-44.0898 36.28,-44.0898 24.04,0 33.88,22.6367 33.88,44.0898 0,21.4493 -9.84,44.0973 -33.88,44.0973 z m -48.9,7.61 h 11.61 v -19.641 h 0.4 c 5.81,14.031 20.25,22.66 36.89,22.66 31.45,0 46.49,-25.468 46.49,-54.7263 0,-29.2734 -15.04,-54.7109 -46.49,-54.7109 -15.44,0 -30.48,7.8203 -35.88,22.6406 h -0.4 V 3.01172 H 1536.8 V 144.719" /><path
         id="path86"
         style="fill:#444142;fill-opacity:1;fill-rule:nonzero;stroke:none"
         d="m 1664.52,93.0117 c 0,-22.0508 12.03,-44.0898 36.28,-44.0898 24.25,0 36.28,22.039 36.28,44.0898 0,22.0393 -12.03,44.0973 -36.28,44.0973 -24.25,0 -36.28,-22.058 -36.28,-44.0973 z m 85.19,0 c 0,-29.6601 -17.24,-54.7109 -48.91,-54.7109 -31.66,0 -48.92,25.0508 -48.92,54.7109 0,29.6683 17.26,54.7263 48.92,54.7263 31.67,0 48.91,-25.058 48.91,-54.7263" /><path
         id="path88"
         style="fill:#444142;fill-opacity:1;fill-rule:nonzero;stroke:none"
         d="m 1773.81,144.719 h 11.64 v -24.25 h 0.39 c 6.43,16.64 20.45,26.453 39.09,25.66 v -12.641 c -22.85,1.203 -38.49,-15.617 -38.49,-37.0661 V 41.3008 h -12.63 V 144.719" /><path
         id="path90"
         style="fill:#444142;fill-opacity:1;fill-rule:nonzero;stroke:none"
         d="m 1912.99,100.23 c -0.59,19.04 -12.44,36.879 -32.89,36.879 -20.64,0 -32.06,-18.05 -34.05,-36.879 z m -66.94,-10.6206 c 0.18,-18.4297 9.81,-40.6875 34.05,-40.6875 18.46,0 28.48,10.8164 32.47,26.457 h 12.63 c -5.39,-23.457 -19.03,-37.0781 -45.1,-37.0781 -32.85,0 -46.69,25.25 -46.69,54.7109 0,27.2693 13.84,54.7263 46.69,54.7263 33.28,0 46.52,-29.058 45.51,-58.1286 h -79.56" /><path
         id="path92"
         style="fill:#ed1c24;fill-opacity:1;fill-rule:nonzero;stroke:none"
         d="m 859.219,1269.35 c 60.152,55.99 136.332,83.64 212.521,84.27 l -0.03,321.11 C 1001.63,1636.98 938.129,1584.3 886.586,1516.98 802.754,1407.49 764.125,1277.7 767.543,1149.8 l 11.266,-1.09 c 16.617,44.52 43.246,86.07 80.41,120.64" /><path
         id="path94"
         style="fill:#0f65a6;fill-opacity:1;fill-rule:nonzero;stroke:none"
         d="m 1109.12,724.359 12.26,-93.218 c 79.49,-33.602 164.21,-48.27 247.9,-44.911 l -122.97,187.028 c -42.15,-27.422 -89.17,-43.649 -137.19,-48.899" /><path
         id="path96"
         style="fill:#0f65a6;fill-opacity:1;fill-rule:nonzero;stroke:none"
         d="m 940.422,752.086 c 16.836,-16.527 34.699,-32.297 53.898,-46.996 23.82,-18.262 48.61,-34.352 74.14,-48.352 v 65.653 c -43.93,0.828 -87.585,10.757 -128.038,29.695" /><path
         id="path98"
         style="fill:#0f65a6;fill-opacity:1;fill-rule:nonzero;stroke:none"
         d="m 1289.66,806.762 c -3.39,-3.145 -7.02,-5.86 -10.48,-8.817 l 174.58,-202.066 c 95.75,18.062 187.11,60.211 264.4,125.051 l -359.81,179 c -16.57,-34.075 -39.27,-65.832 -68.69,-93.168" /><path
         id="path100"
         style="fill:#fddd04;fill-opacity:1;fill-rule:nonzero;stroke:none"
         d="m 1387.26,1080.98 538.07,71.63 c 1.96,96.69 -20.24,193.16 -65.34,279.85 l -505.53,-248.64 c 16.99,-32.57 27.97,-67.33 32.8,-102.84" /><path
         id="path102"
         style="fill:#0f65a6;fill-opacity:1;fill-rule:nonzero;stroke:none"
         d="m 1912.13,1041.07 -522.11,-0.7 c 0.26,-34.68 -4.83,-69.331 -15.87,-102.472 l 417.34,-143.253 c 4.94,5.945 9.9,11.941 14.65,18.171 53.43,69.75 88.44,147.778 105.99,228.254" /><path
         id="path104"
         style="fill:#fddd04;fill-opacity:1;fill-rule:nonzero;stroke:none"
         d="m 1223.14,1316.55 234.72,416.64 c -100.05,19.55 -203.45,12.28 -299.26,-20.49 l -47.5,-361.04 c 38.83,-4.53 76.82,-16.34 112.04,-35.11" /><path
         id="path106"
         style="fill:#fddd04;fill-opacity:1;fill-rule:nonzero;stroke:none"
         d="m 1305.76,1253.26 c 10.34,-11.09 19.37,-22.92 27.8,-35.01 l 464.18,309.42 c -28.52,35.44 -61.56,68.1 -99.28,96.96 -42.73,32.73 -88.61,58.42 -136.22,77.58 l -305.05,-406.37 c 17.26,-12.3 33.57,-26.44 48.57,-42.58" /><path
         id="path108"
         style="fill:#444142;fill-opacity:1;fill-rule:nonzero;stroke:none"
         d="m 24.9297,915.863 c -1.0977,-53.593 37.5742,-69.961 84.9413,-69.961 27.336,0 68.934,14.903 68.934,52.844 0,29.508 -29.559,41.219 -53.614,47.008 l -57.9605,14.242 c -30.6211,7.656 -58.71097,22.25 -58.71097,62.704 0,25.52 16.41017,73.3 89.68357,73.3 51.4139,0 96.6409,-27.75 96.2499,-80.95 h -24.769 c -1.457,39.75 -34.278,59.78 -71.0942,59.78 -33.9179,0 -65.2695,-13.11 -65.2695,-51.78 0,-24.433 18.207,-34.612 39.375,-39.749 l 63.4417,-15.649 c 36.816,-9.843 67.441,-25.886 67.441,-68.55 0,-17.856 -7.301,-74.379 -99.531,-74.379 -61.6173,0 -106.83997,27.703 -103.910281,91.14 H 24.9297" /><path
         id="path110"
         style="fill:#444142;fill-opacity:1;fill-rule:nonzero;stroke:none"
         d="M 261.262,1090.5 H 441 v -21.12 H 286.078 V 975.309 H 431.156 V 954.156 H 286.078 V 851.352 H 442.855 V 830.199 H 261.262 V 1090.5" /><path
         id="path112"
         style="fill:#444142;fill-opacity:1;fill-rule:nonzero;stroke:none"
         d="m 520.582,966.93 h 92.602 c 30.277,0 56.129,18.968 56.129,50.66 0,31.74 -18.926,51.79 -56.129,51.79 h -92.602 z m -24.777,123.57 h 119.183 c 43.059,0 79.145,-20.79 79.145,-67.8 0,-32.817 -17.164,-59.774 -50.672,-66.356 v -0.731 c 33.898,-4.386 43.742,-27.699 45.555,-58.718 1.117,-17.836 1.117,-53.59 12.039,-66.696 h -27.36 c -6.191,10.176 -6.191,29.551 -6.922,40.473 -2.187,36.476 -5.117,76.933 -52.125,75.082 H 520.582 V 830.199 H 495.805 V 1090.5" /><path
         id="path114"
         style="fill:#444142;fill-opacity:1;fill-rule:nonzero;stroke:none"
         d="m 759.137,1090.5 h 24.765 V 830.199 H 759.137 V 1090.5" /><path
         id="path116"
         style="fill:#444142;fill-opacity:1;fill-rule:nonzero;stroke:none"
         d="m 868.164,915.863 c -1.07,-53.593 37.551,-69.961 84.945,-69.961 27.356,0 68.911,14.903 68.911,52.844 0,29.508 -29.504,41.219 -53.598,47.008 l -57.93,14.242 c -30.621,7.656 -58.711,22.25 -58.711,62.704 0,25.52 16.383,73.3 89.672,73.3 51.402,0 96.607,-27.75 96.277,-80.95 h -24.78 c -1.48,39.75 -34.282,59.78 -71.098,59.78 -33.942,0 -65.297,-13.11 -65.297,-51.78 0,-24.433 18.234,-34.612 39.402,-39.749 l 63.434,-15.649 c 36.809,-9.843 67.439,-25.886 67.439,-68.55 0,-17.856 -7.3,-74.379 -99.521,-74.379 -61.641,0 -106.84,27.703 -103.918,91.14 h 24.773" /></g></g></svg>